# xmcd
#
# Track frame offsets:
# 150
# 5325
# 28847
# 44577
# 61692
# 65230
# 86880
# 90890
# 105462
# 116950
# 121380
# 144590
# 149755
# 170715
# 191062
# 194072
# 214185
# 221775
# 222075
# 222375
# 222675
# 222975
# 223275
# 223575
# 223875
# 224175
# 224475
# 224775
# 225075
# 225375
# 225675
# 225975
# 226275
# 226575
# 226875
# 227175
# 227475
# 227775
# 228075
# 228375
# 228675
# 228975
# 229275
# 229575
# 229875
# 230175
# 230475
# 230775
# 231075
# 231375
# 231675
# 231975
# 232275
# 232575
# 232875
# 233175
# 233475
# 233775
# 234075
# 234375
# 234675
# 234975
# 235275
# 235575
# 235875
# 236175
# 236475
# 236775
# 237075
#
# Disc length: 3572 seconds
#
# Revision: 0
# Processed by: cddbd v1.5PL3 Copyright (c) Steve Scherf et al.
# Submitted via: MacMP3 Pro 5.0 (http://mp3.act2.co.jp/)
#
DISCID=fa0df245
DTITLE=TWIGY - The Legendary Mr.Clifton
DYEAR=1900
DGENRE=
TTITLE0=Mr.Clifton Theme
TTITLE1=‡ÕÏÙË< feat. Macka-chin.D.O and Q
TTITLE2=T.K.O feat. G.K. Maryan. D.O and Wiggy Clifton
TTITLE3=‰€Ò]
TTITLE4=?
TTITLE5=LAST WALTZ
TTITLE6=call#1 (WHAT WHAT and Lucy Lou)
TTITLE7=
TTITLE8=«<=«¡«“
TTITLE9=OH! YEAH
TTITLE10=…i…j…i…j feat. bird
TTITLE11=«™«√«<«<
TTITLE12=«±«√«<«< feat. Ì?Ò∫Ë…Ô?
TTITLE13=«?«Ã
TTITLE14=call#2 (Captain Kirk)
TTITLE15=FREEDOM feat. You The Rock≈ˆ and Keyco
TTITLE16=OUTRO
TTITLE17=x
TTITLE18=x
TTITLE19=x
TTITLE20=x
TTITLE21=x
TTITLE22=x
TTITLE23=x
TTITLE24=x
TTITLE25=x
TTITLE26=x
TTITLE27=x
TTITLE28=x
TTITLE29=x
TTITLE30=x
TTITLE31=x
TTITLE32=x
TTITLE33=x
TTITLE34=x
TTITLE35=x
TTITLE36=x
TTITLE37=x
TTITLE38=x
TTITLE39=x
TTITLE40=x
TTITLE41=x
TTITLE42=x
TTITLE43=x
TTITLE44=x
TTITLE45=x
TTITLE46=x
TTITLE47=x
TTITLE48=x
TTITLE49=x
TTITLE50=x
TTITLE51=x
TTITLE52=x
TTITLE53=x
TTITLE54=x
TTITLE55=x
TTITLE56=x
TTITLE57=x
TTITLE58=x
TTITLE59=x
TTITLE60=x
TTITLE61=x
TTITLE62=x
TTITLE63=x
TTITLE64=x
TTITLE65=x
TTITLE66=x
TTITLE67=x
TTITLE68=«±«√«<«< feat. Ì?Ò∫Ë…Ô?(BUTT NAKED! MIX)
EXTD=
EXTT0=
EXTT1=
EXTT2=
EXTT3=
EXTT4=
EXTT5=
EXTT6=
EXTT7=
EXTT8=
EXTT9=
EXTT10=
EXTT11=
EXTT12=
EXTT13=
EXTT14=
EXTT15=
EXTT16=
EXTT17=
EXTT18=
EXTT19=
EXTT20=
EXTT21=
EXTT22=
EXTT23=
EXTT24=
EXTT25=
EXTT26=
EXTT27=
EXTT28=
EXTT29=
EXTT30=
EXTT31=
EXTT32=
EXTT33=
EXTT34=
EXTT35=
EXTT36=
EXTT37=
EXTT38=
EXTT39=
EXTT40=
EXTT41=
EXTT42=
EXTT43=
EXTT44=
EXTT45=
EXTT46=
EXTT47=
EXTT48=
EXTT49=
EXTT50=
EXTT51=
EXTT52=
EXTT53=
EXTT54=
EXTT55=
EXTT56=
EXTT57=
EXTT58=
EXTT59=
EXTT60=
EXTT61=
EXTT62=
EXTT63=
EXTT64=
EXTT65=
EXTT66=
EXTT67=
EXTT68=
PLAYORDER=
